<svg width="224" height="77" viewBox="0 0 224 77" fill="none" xmlns="http://www.w3.org/2000/svg">
<path d="M26.7483 38.56C26.7483 40.88 27.7349 42.04 29.7083 42.04C31.8683 42.04 33.3216 41.2933 34.0683 39.8C34.3349 39.2667 34.4683 38.5867 34.4683 37.76C34.4683 36.9067 34.2683 36.12 33.8683 35.4C33.2016 34.2533 32.0549 32.9867 30.4283 31.6C27.7349 29.3067 26.3883 26.9333 26.3883 24.48C26.3883 22 27.1616 20.0933 28.7083 18.76C30.2549 17.4267 32.0283 16.76 34.0283 16.76C36.0283 16.76 37.6149 17.2667 38.7883 18.28C39.9616 19.2933 40.5483 20.8133 40.5483 22.84C40.5483 24.1733 40.0949 25.3333 39.1883 26.32C38.3083 27.3067 37.1349 27.92 35.6683 28.16C36.3349 28.72 37.0016 29.2933 37.6683 29.88C38.3083 30.4667 38.8949 31.1067 39.4283 31.8C40.6016 33.3733 41.1883 35.2533 41.1883 37.44C41.1883 38.96 40.8283 40.3333 40.1083 41.56C39.4149 42.7867 38.4949 43.8267 37.3483 44.68C36.2283 45.5067 34.9616 46.1467 33.5483 46.6C32.1349 47.0533 30.8149 47.28 29.5883 47.28C26.9749 47.28 24.9483 46.68 23.5083 45.48C21.8283 44.12 20.9883 42.16 20.9883 39.6C20.9883 37.92 21.5349 36.2933 22.6283 34.72C23.7216 33.1467 24.8816 32.36 26.1083 32.36C27.0683 32.36 27.5483 32.6533 27.5483 33.24C27.5483 34.0933 27.4149 34.9467 27.1483 35.8C26.8816 36.6267 26.7483 37.5467 26.7483 38.56ZM34.5083 27.2C36.0283 25.68 36.7883 24.0933 36.7883 22.44C36.7883 21.9333 36.5216 21.5067 35.9883 21.16C35.4016 20.84 34.7883 20.68 34.1483 20.68C32.7083 20.68 31.6683 21.1467 31.0283 22.08C31.3483 23.2267 31.8149 24.2 32.4283 25C33.0683 25.8 33.7616 26.5333 34.5083 27.2ZM48.8008 47.12C46.1341 47.12 44.8008 44.6267 44.8008 39.64C44.8008 36.92 45.1341 34.4533 45.8008 32.24C46.8408 28.8267 48.0141 27.12 49.3208 27.12C50.0941 27.12 50.7074 27.64 51.1608 28.68C51.5341 29.48 51.7074 30.2667 51.6808 31.04C51.6808 32.1067 51.3608 33.9867 50.7208 36.68C50.1074 39.0267 49.8008 40.48 49.8008 41.04C49.8008 41.6 49.9341 41.9867 50.2008 42.2C50.4941 42.4133 50.8274 42.52 51.2008 42.52C51.6008 42.52 52.0941 42.2667 52.6808 41.76C53.2674 41.2533 53.8541 40.7067 54.4408 40.12C55.0274 39.5067 55.5608 38.9467 56.0408 38.44C56.5474 37.9333 56.8941 37.68 57.0808 37.68C57.4541 37.68 57.6408 38.1333 57.6408 39.04C57.6408 40.9067 56.6941 42.7333 54.8008 44.52C52.9341 46.28 50.9341 47.1467 48.8008 47.12ZM50.4408 23.88C49.7208 22.8133 49.3608 21.6667 49.3608 20.44C49.3608 19.2133 49.5474 18.2 49.9208 17.4C50.3208 16.5733 50.6941 15.9733 51.0408 15.6C51.3874 15.2 51.7874 15 52.2408 15C52.9874 15 53.6674 15.56 54.2808 16.68C54.8941 17.7733 55.2008 18.6933 55.2008 19.44C55.2008 20.8267 54.7074 21.92 53.7208 22.72C52.7608 23.4933 51.6674 23.88 50.4408 23.88ZM70.9614 28.8C71.3347 27.6267 71.9347 27.04 72.7614 27.04C73.5081 27.0667 74.2147 27.6 74.8814 28.64C75.5481 29.6533 75.8814 30.44 75.8814 31C75.8281 32.0933 75.4947 33.84 74.8814 36.24C74.2681 38.6133 73.4014 41.7067 72.2814 45.52C74.0414 44.16 75.7747 42.3867 77.4814 40.2C78.0681 39.4533 78.5614 38.8533 78.9614 38.4C79.3881 37.92 79.7347 37.68 80.0014 37.68C80.3747 37.68 80.5614 38.1067 80.5614 38.96C80.5614 40.64 79.6147 42.6 77.7214 44.84C75.8547 47.08 73.5614 48.8267 70.8414 50.08C70.5214 51.1467 70.1747 52.16 69.8014 53.12C69.4281 54.08 68.9481 54.92 68.3614 55.64C67.0814 57.1867 65.1347 57.96 62.5214 57.96C60.7614 57.96 59.2547 57.4533 58.0014 56.44C56.7747 55.4267 56.1614 54.16 56.1614 52.64C56.1614 51.8133 56.4281 51.16 56.9614 50.68C57.5214 50.2 58.2814 49.8133 59.2414 49.52C60.2014 49.2267 61.3214 48.9733 62.6014 48.76C63.9081 48.5467 65.2947 48.28 66.7614 47.96C66.8947 47.5067 67.0014 47.0667 67.0814 46.64C67.1881 46.1867 67.2947 45.7333 67.4014 45.28C65.9347 46.64 64.1347 47.32 62.0014 47.32C59.8947 47.32 58.2681 46.7333 57.1214 45.56C55.9747 44.3867 55.4147 42.96 55.4414 41.28C55.4414 36.7467 56.9481 33.1733 59.9614 30.56C62.0414 28.7733 64.2014 27.88 66.4414 27.88C67.2147 27.88 68.0414 27.9733 68.9214 28.16C69.8281 28.3467 70.5081 28.56 70.9614 28.8ZM61.3214 39.96C61.3214 42.0133 62.0814 43.04 63.6014 43.04C64.4547 43.04 65.3214 42.72 66.2014 42.08C67.0814 41.44 67.7881 40.4 68.3214 38.96C68.7214 37.0933 69.1347 35.3733 69.5614 33.8C70.0147 32.2267 70.3214 31.1333 70.4814 30.52C68.2414 30.8133 66.1481 31.8133 64.2014 33.52C62.2814 35.2267 61.3214 37.3733 61.3214 39.96ZM65.5214 51.64C64.5614 51.8267 63.7214 51.9733 63.0014 52.08C62.2814 52.1867 61.6814 52.28 61.2014 52.36C60.7481 52.44 60.4014 52.5333 60.1614 52.64C59.9481 52.7467 59.8414 52.92 59.8414 53.16C59.8414 53.64 60.1347 54.0533 60.7214 54.4C61.3347 54.7467 61.9347 54.9067 62.5214 54.88C63.5347 54.88 64.5347 53.8 65.5214 51.64ZM83.8911 27.04C84.8511 27.04 85.7578 27.96 86.6111 29.8C87.8644 28.4933 89.4111 27.84 91.2511 27.84C93.1178 27.84 94.5178 28.2533 95.4511 29.08C96.3844 29.88 96.8511 31.0267 96.8511 32.52C96.8511 33.9867 96.6511 35.48 96.2511 37C95.8778 38.52 95.5978 39.6133 95.4111 40.28C95.2511 40.92 95.1711 41.4533 95.1711 41.88C95.1711 42.3067 95.3178 42.52 95.6111 42.52C96.0111 42.52 96.5044 42.2667 97.0911 41.76C97.6778 41.2533 98.2644 40.7067 98.8511 40.12C99.4378 39.5067 99.9711 38.9467 100.451 38.44C100.958 37.9333 101.304 37.68 101.491 37.68C101.864 37.68 102.051 38.1333 102.051 39.04C102.051 40.9067 101.131 42.7067 99.2911 44.44C96.1978 46.2533 94.2244 47.16 93.3711 47.16C93.2911 47.16 93.2378 47.1467 93.2111 47.12C91.0778 47.12 90.0111 45.4133 90.0111 42C90.0111 40.5333 90.1444 39.1867 90.4111 37.96C90.7044 36.7333 90.9178 35.84 91.0511 35.28C91.1844 34.72 91.2511 34.1467 91.2511 33.56C91.2511 32.6 90.6911 32.12 89.5711 32.12C88.4778 32.12 87.4244 32.9467 86.4111 34.6C85.4244 36.2267 84.7578 37.92 84.4111 39.68V39.96C84.4111 40.8667 84.5444 41.8 84.8111 42.76C85.1044 43.72 85.2511 44.3867 85.2511 44.76C85.2511 45.6667 84.1178 46.56 81.8511 47.44C81.5044 47.5733 81.1978 47.64 80.9311 47.64C80.2644 47.64 79.7978 47.2933 79.5311 46.6C79.2911 45.9067 79.1711 44.8267 79.1711 43.36C79.1711 39.5733 79.3178 36.84 79.6111 35.16C80.0111 32.6533 80.9178 30.32 82.3311 28.16C82.8111 27.4133 83.3311 27.04 83.8911 27.04ZM120.135 40.52C120.829 40.0133 121.455 39.4 122.015 38.68C122.575 37.9333 123.042 37.56 123.415 37.56C123.815 37.56 124.015 38.1467 124.015 39.32C124.015 40.4667 123.682 41.56 123.015 42.6C122.375 43.6133 121.522 44.4667 120.455 45.16C118.269 46.6 115.682 47.32 112.695 47.32C109.069 47.32 106.255 46.4133 104.255 44.6C102.255 42.7867 101.255 40.2667 101.255 37.04C101.255 33.0667 102.215 29.2933 104.135 25.72C104.775 24.5467 105.495 23.4667 106.295 22.48C105.682 21.76 105.189 21.0133 104.815 20.24C104.469 19.44 104.295 18.84 104.295 18.44C104.295 17.72 104.562 17.36 105.095 17.36C105.469 17.3867 105.895 17.64 106.375 18.12L107.615 19.32C107.935 19.64 108.269 19.9067 108.615 20.12C111.255 17.88 114.095 16.76 117.135 16.76C120.202 16.76 122.189 17.6133 123.095 19.32C123.415 19.96 123.575 20.7467 123.575 21.68C123.575 23.0933 122.962 24.28 121.735 25.24C120.509 26.2 118.855 26.68 116.775 26.68C114.722 26.68 112.589 26.2533 110.375 25.4C108.482 28.6267 107.535 32 107.535 35.52C107.535 40.4 109.482 42.84 113.375 42.84C115.775 42.84 118.029 42.0667 120.135 40.52ZM112.295 22.92C113.655 23.3733 115.135 23.6 116.735 23.6C118.335 23.6 119.135 23.16 119.135 22.28C119.135 21.24 118.482 20.72 117.175 20.72C115.389 20.72 113.762 21.4533 112.295 22.92ZM138.169 43.6C136.062 46.08 133.529 47.32 130.569 47.32C127.635 47.32 125.435 46.5733 123.969 45.08C122.502 43.56 121.782 41.68 121.809 39.44C121.782 36.2667 122.782 33.5333 124.809 31.24C126.835 28.9467 129.489 27.8 132.769 27.8C134.262 27.8 135.462 27.9867 136.369 28.36C137.942 29 138.729 29.6 138.729 30.16C138.729 30.5867 137.622 30.8133 135.409 30.84C133.222 30.84 131.382 31.6 129.889 33.12C128.422 34.6133 127.689 36.5067 127.689 38.8C127.689 40 128.035 41.0133 128.729 41.84C129.449 42.64 130.449 43.04 131.729 43.04C133.035 43.04 134.115 42.7733 134.969 42.24C133.075 40.96 132.129 39.1067 132.129 36.68C132.102 35.4 132.555 34.24 133.489 33.2C134.449 32.1333 135.662 31.6 137.129 31.6C138.622 31.5733 139.689 31.9733 140.329 32.8C140.969 33.6267 141.289 34.6933 141.289 36C141.289 37.28 140.982 38.64 140.369 40.08H140.609C141.782 40.0533 142.795 39.64 143.649 38.84C143.969 38.52 144.235 38.24 144.449 38C144.689 37.76 144.929 37.64 145.169 37.64C145.542 37.64 145.729 38.08 145.729 38.96C145.729 40.5867 145.249 41.8133 144.289 42.64C143.329 43.44 142.262 43.84 141.089 43.84C139.942 43.84 138.969 43.76 138.169 43.6ZM137.809 38.96C138.262 38 138.489 37.0667 138.489 36.16C138.489 35.2533 138.195 34.8 137.609 34.8C137.369 34.8 137.169 34.9733 137.009 35.32C136.849 35.6667 136.769 36 136.769 36.32C136.769 37.3867 137.115 38.2667 137.809 38.96ZM165.647 34.84C165.647 33.96 165.141 33.52 164.127 33.52C163.434 33.52 162.661 34.2 161.807 35.56C160.954 36.8933 160.341 38.3333 159.967 39.88V39.96C159.967 40.8667 160.101 41.8 160.367 42.76C160.661 43.72 160.807 44.3867 160.807 44.76C160.807 45.6667 159.674 46.56 157.407 47.44C157.061 47.5733 156.754 47.64 156.487 47.64C155.821 47.64 155.354 47.2933 155.087 46.6C154.847 45.9067 154.727 44.9733 154.727 43.8C154.727 42.6 154.754 41.48 154.807 40.44C154.887 39.3733 154.954 38.4 155.007 37.52C155.087 36.6133 155.154 35.8267 155.207 35.16C155.287 34.4667 155.327 33.9067 155.327 33.48C155.327 32.5733 154.914 32.12 154.087 32.12C153.261 32.12 152.301 33.0933 151.207 35.04C150.114 36.96 149.567 38.4933 149.567 39.64C149.567 40.76 149.701 41.8 149.967 42.76C150.261 43.72 150.407 44.3867 150.407 44.76C150.407 45.6667 149.274 46.56 147.007 47.44C146.661 47.5733 146.354 47.64 146.087 47.64C145.421 47.64 144.954 47.2933 144.687 46.6C144.447 45.9067 144.327 44.84 144.327 43.4C144.327 39.6133 144.474 36.88 144.767 35.2C145.167 32.72 146.074 30.3733 147.487 28.16C147.967 27.4133 148.487 27.04 149.047 27.04C149.927 27.04 150.741 27.76 151.487 29.2C151.701 29.5733 151.861 29.92 151.967 30.24C153.247 28.64 154.754 27.84 156.487 27.84C157.634 27.84 158.661 28.2267 159.567 29C160.474 29.7467 160.927 30.6933 160.927 31.84V32.28C162.554 30.2533 164.541 29.24 166.887 29.24C168.327 29.24 169.421 29.6133 170.167 30.36C170.914 31.1067 171.287 32.0267 171.287 33.12C171.287 34.2133 171.207 35.2 171.047 36.08C170.887 36.96 170.701 37.7867 170.487 38.56C170.301 39.3333 170.127 40.0267 169.967 40.64C169.807 41.2267 169.727 41.6933 169.727 42.04C169.727 42.36 169.834 42.52 170.047 42.52C170.447 42.52 170.941 42.2667 171.527 41.76C172.114 41.2533 172.701 40.7067 173.287 40.12C173.874 39.5067 174.407 38.9467 174.887 38.44C175.394 37.9333 175.741 37.68 175.927 37.68C176.301 37.68 176.487 38.1333 176.487 39.04C176.487 40.9067 175.541 42.72 173.647 44.48C171.781 46.24 169.781 47.12 167.647 47.12C165.727 47.12 164.767 45.3733 164.767 41.88C164.767 41 164.914 39.7867 165.207 38.24C165.501 36.6933 165.647 35.56 165.647 34.84ZM196.39 34.84C196.39 33.96 195.883 33.52 194.87 33.52C194.176 33.52 193.403 34.2 192.55 35.56C191.696 36.8933 191.083 38.3333 190.71 39.88V39.96C190.71 40.8667 190.843 41.8 191.11 42.76C191.403 43.72 191.55 44.3867 191.55 44.76C191.55 45.6667 190.416 46.56 188.15 47.44C187.803 47.5733 187.496 47.64 187.23 47.64C186.563 47.64 186.096 47.2933 185.83 46.6C185.59 45.9067 185.47 44.9733 185.47 43.8C185.47 42.6 185.496 41.48 185.55 40.44C185.63 39.3733 185.696 38.4 185.75 37.52C185.83 36.6133 185.896 35.8267 185.95 35.16C186.03 34.4667 186.07 33.9067 186.07 33.48C186.07 32.5733 185.656 32.12 184.83 32.12C184.003 32.12 183.043 33.0933 181.95 35.04C180.856 36.96 180.31 38.4933 180.31 39.64C180.31 40.76 180.443 41.8 180.71 42.76C181.003 43.72 181.15 44.3867 181.15 44.76C181.15 45.6667 180.016 46.56 177.75 47.44C177.403 47.5733 177.096 47.64 176.83 47.64C176.163 47.64 175.696 47.2933 175.43 46.6C175.19 45.9067 175.07 44.84 175.07 43.4C175.07 39.6133 175.216 36.88 175.51 35.2C175.91 32.72 176.816 30.3733 178.23 28.16C178.71 27.4133 179.23 27.04 179.79 27.04C180.67 27.04 181.483 27.76 182.23 29.2C182.443 29.5733 182.603 29.92 182.71 30.24C183.99 28.64 185.496 27.84 187.23 27.84C188.376 27.84 189.403 28.2267 190.31 29C191.216 29.7467 191.67 30.6933 191.67 31.84V32.28C193.296 30.2533 195.283 29.24 197.63 29.24C199.07 29.24 200.163 29.6133 200.91 30.36C201.656 31.1067 202.03 32.0267 202.03 33.12C202.03 34.2133 201.95 35.2 201.79 36.08C201.63 36.96 201.443 37.7867 201.23 38.56C201.043 39.3333 200.87 40.0267 200.71 40.64C200.55 41.2267 200.47 41.6933 200.47 42.04C200.47 42.36 200.576 42.52 200.79 42.52C201.19 42.52 201.683 42.2667 202.27 41.76C202.856 41.2533 203.443 40.7067 204.03 40.12C204.616 39.5067 205.15 38.9467 205.63 38.44C206.136 37.9333 206.483 37.68 206.67 37.68C207.043 37.68 207.23 38.1333 207.23 39.04C207.23 40.9067 206.283 42.72 204.39 44.48C202.523 46.24 200.523 47.12 198.39 47.12C196.47 47.12 195.51 45.3733 195.51 41.88C195.51 41 195.656 39.7867 195.95 38.24C196.243 36.6933 196.39 35.56 196.39 34.84Z" fill="url(#paint0_linear_414_397)"/>
<path d="M212.973 0.893221C212.496 2.55631 211.565 5.69316 210.458 8.95892C210.745 9.04889 211.008 9.1308 211.221 9.19928C211.314 9.22898 211.4 9.27987 211.472 9.3483C211.544 9.41674 211.6 9.50103 211.638 9.59512C211.675 9.68921 211.692 9.79076 211.687 9.89251C211.683 9.99425 211.656 10.0936 211.611 10.1836C210.704 12.0011 208.219 16.7493 205.767 19.3967C205.726 19.4437 205.684 19.5041 205.643 19.5471C204.145 21.1174 202.112 21.9997 199.993 22C197.873 22.0003 195.84 21.1185 194.341 19.5486C192.843 17.9788 192 15.8494 192 13.629C192 11.4086 192.841 9.27901 194.34 7.70874C194.381 7.66577 194.439 7.6228 194.484 7.57983C197.01 5.00563 201.538 2.40592 203.277 1.45654C203.363 1.4087 203.458 1.38137 203.555 1.3765C203.652 1.37163 203.749 1.38935 203.839 1.42837C203.928 1.46739 204.009 1.52676 204.074 1.60221C204.139 1.67766 204.188 1.76732 204.216 1.86476C204.282 2.08364 204.36 2.36294 204.446 2.66374C207.559 1.50354 210.557 0.527971 212.144 0.0297825C212.259 -0.00655886 212.381 -0.00970242 212.497 0.0206852C212.613 0.0510729 212.719 0.113859 212.804 0.202382C212.889 0.290906 212.95 0.401867 212.979 0.523495C213.009 0.645123 213.007 0.772882 212.973 0.893221ZM205.122 13.7501C205.122 12.6625 204.814 11.5993 204.237 10.695C203.66 9.79073 202.841 9.08597 201.881 8.66985C200.922 8.25373 199.867 8.14493 198.848 8.35721C197.83 8.5695 196.895 9.09333 196.161 9.86247C195.426 10.6316 194.927 11.6115 194.724 12.6783C194.522 13.7451 194.626 14.8508 195.023 15.8556C195.42 16.8605 196.093 17.7193 196.956 18.3236C197.82 18.9278 198.835 19.2504 199.873 19.2504C200.562 19.2504 201.245 19.1081 201.882 18.8317C202.519 18.5553 203.098 18.1501 203.585 17.6394C204.073 17.1286 204.459 16.5223 204.723 15.8549C204.987 15.1876 205.123 14.4724 205.122 13.7501ZM199.873 12.3751C199.873 12.647 199.796 12.9128 199.652 13.1389C199.507 13.3649 199.302 13.5411 199.063 13.6451C198.823 13.7492 198.559 13.7764 198.304 13.7233C198.05 13.6702 197.816 13.5393 197.632 13.347C197.449 13.1547 197.324 12.9097 197.273 12.643C197.223 12.3763 197.249 12.0999 197.348 11.8487C197.447 11.5975 197.616 11.3828 197.831 11.2317C198.047 11.0806 198.301 11 198.56 11C198.733 10.9998 198.904 11.0352 199.063 11.1043C199.222 11.1733 199.367 11.2746 199.489 11.4023C199.611 11.53 199.708 11.6817 199.773 11.8486C199.839 12.0156 199.873 12.1944 199.873 12.3751ZM201.185 15.8127C201.185 15.9487 201.147 16.0816 201.075 16.1946C201.003 16.3076 200.9 16.3957 200.78 16.4477C200.66 16.4998 200.528 16.5134 200.401 16.4868C200.274 16.4603 200.157 16.3948 200.065 16.2987C199.973 16.2025 199.911 16.08 199.885 15.9467C199.86 15.8133 199.873 15.6751 199.923 15.5495C199.972 15.4239 200.057 15.3166 200.165 15.241C200.272 15.1655 200.399 15.1252 200.529 15.1252C200.703 15.1258 200.87 15.1984 200.992 15.3272C201.115 15.456 201.185 15.6306 201.185 15.8127Z" fill="url(#paint1_linear_414_397)"/>
<defs>
<linearGradient id="paint0_linear_414_397" x1="0" y1="41.5" x2="224" y2="41.5" gradientUnits="userSpaceOnUse">
<stop stop-color="#11E4E4"/>
<stop offset="0.473817" stop-color="#0A7E7E"/>
<stop offset="1" stop-color="#1B5987"/>
</linearGradient>
<linearGradient id="paint1_linear_414_397" x1="202.5" y1="0" x2="202.5" y2="22" gradientUnits="userSpaceOnUse">
<stop stop-color="#11E4E4"/>
<stop offset="1" stop-color="#1B5987"/>
</linearGradient>
</defs>
</svg>
